<svg id="Icons_Neu" data-name="Icons Neu" xmlns="http://www.w3.org/2000/svg" xmlns:xlink="http://www.w3.org/1999/xlink" viewBox="0 0 180 120"><defs><style>.cls-1,.cls-10,.cls-11,.cls-12,.cls-13,.cls-14,.cls-2,.cls-3,.cls-4,.cls-5,.cls-6,.cls-7,.cls-9{fill:none;stroke-linecap:round;stroke-linejoin:round;}.cls-1,.cls-11,.cls-2,.cls-3,.cls-4{stroke-width:3px;}.cls-1{stroke:url(#Unbenannter_Verlauf_4);}.cls-2{stroke:url(#Unbenannter_Verlauf_4-2);}.cls-3{stroke:url(#Unbenannter_Verlauf_4-3);}.cls-4{stroke:url(#Unbenannter_Verlauf_4-4);}.cls-10,.cls-12,.cls-13,.cls-14,.cls-5,.cls-6,.cls-7,.cls-9{stroke-width:2px;}.cls-5{stroke:url(#Unbenannter_Verlauf_4-5);}.cls-6{stroke:url(#Unbenannter_Verlauf_4-6);}.cls-7{stroke:url(#Unbenannter_Verlauf_4-7);}.cls-8{fill:url(#Unbenannter_Verlauf_4-8);}.cls-9{stroke:url(#Unbenannter_Verlauf_4-9);}.cls-10{stroke:url(#Unbenannter_Verlauf_4-10);}.cls-11{stroke:url(#Unbenannter_Verlauf_4-11);}.cls-12{stroke:url(#Unbenannter_Verlauf_4-12);}.cls-13{stroke:url(#Unbenannter_Verlauf_4-13);}.cls-14{stroke:url(#Unbenannter_Verlauf_4-14);}</style><linearGradient id="Unbenannter_Verlauf_4" x1="102.02" y1="47.23" x2="142.67" y2="47.23" gradientUnits="userSpaceOnUse"><stop offset="0" stop-color="#f05"/><stop offset="1" stop-color="#ff6400"/></linearGradient><linearGradient id="Unbenannter_Verlauf_4-2" x1="38" y1="47.17" x2="79.13" y2="47.17" xlink:href="#Unbenannter_Verlauf_4"/><linearGradient id="Unbenannter_Verlauf_4-3" x1="76.82" y1="99.37" x2="103.81" y2="99.37" xlink:href="#Unbenannter_Verlauf_4"/><linearGradient id="Unbenannter_Verlauf_4-4" x1="50.27" y1="60.13" x2="92.21" y2="60.13" gradientTransform="matrix(-1, 0, 0, 1, 161.49, 0)" xlink:href="#Unbenannter_Verlauf_4"/><linearGradient id="Unbenannter_Verlauf_4-5" x1="84.15" y1="21.09" x2="96.53" y2="21.09" xlink:href="#Unbenannter_Verlauf_4"/><linearGradient id="Unbenannter_Verlauf_4-6" x1="21.44" y1="21.09" x2="29.43" y2="21.09" xlink:href="#Unbenannter_Verlauf_4"/><linearGradient id="Unbenannter_Verlauf_4-7" x1="165.98" y1="-12.14" x2="173.96" y2="-12.14" gradientTransform="translate(324.53 8.95) rotate(180)" xlink:href="#Unbenannter_Verlauf_4"/><linearGradient id="Unbenannter_Verlauf_4-8" x1="88.12" y1="21.09" x2="92.55" y2="21.09" xlink:href="#Unbenannter_Verlauf_4"/><linearGradient id="Unbenannter_Verlauf_4-9" x1="113.36" y1="21.09" x2="155.13" y2="21.09" xlink:href="#Unbenannter_Verlauf_4"/><linearGradient id="Unbenannter_Verlauf_4-10" x1="25.07" y1="21.09" x2="66.83" y2="21.09" xlink:href="#Unbenannter_Verlauf_4"/><linearGradient id="Unbenannter_Verlauf_4-11" x1="88.62" y1="67.93" x2="91.62" y2="67.93" xlink:href="#Unbenannter_Verlauf_4"/><linearGradient id="Unbenannter_Verlauf_4-12" x1="89.12" y1="46.27" x2="91.12" y2="46.27" xlink:href="#Unbenannter_Verlauf_4"/><linearGradient id="Unbenannter_Verlauf_4-13" x1="80" y1="81.31" x2="100.47" y2="81.31" xlink:href="#Unbenannter_Verlauf_4"/><linearGradient id="Unbenannter_Verlauf_4-14" x1="82.39" y1="99.58" x2="98.29" y2="99.58" xlink:href="#Unbenannter_Verlauf_4"/></defs><title>wwda_content</title><path class="cls-1" d="M103.52,22.68a50.85,50.85,0,0,1,37.65,49.1"/><path class="cls-2" d="M39.5,71.78A50.87,50.87,0,0,1,77.63,22.55"/><path class="cls-3" d="M102.31,94.65v6.76a2.7,2.7,0,0,1-2.69,2.69H81a2.7,2.7,0,0,1-2.68-2.69V94.65"/><path class="cls-4" d="M90.25,88.58h11c1.47,0,2.68-.49,2.68-2.69,0-5.37,5.78-10.14,5.78-11.92,0-9.93-15.49-32-15.49-42.3H86.28C86.28,42,70.78,64,70.78,74c0,1.78,5.78,6.55,5.78,11.92,0,2.2,1.21,2.69,2.69,2.69Z"/><circle class="cls-5" cx="90.34" cy="21.09" r="5.19"/><path class="cls-6" d="M28.43,24.18a3.79,3.79,0,1,1,0-6.18"/><path class="cls-7" d="M151.57,18a3.79,3.79,0,1,1,0,6.18"/><path class="cls-8" d="M90.34,23.3a2.21,2.21,0,1,1,2.21-2.21A2.22,2.22,0,0,1,90.34,23.3Z"/><line class="cls-9" x1="114.36" y1="21.09" x2="154.13" y2="21.09"/><line class="cls-10" x1="26.07" y1="21.09" x2="65.83" y2="21.09"/><line class="cls-11" x1="90.12" y1="65.03" x2="90.12" y2="70.82"/><line class="cls-12" x1="90.12" y1="35.45" x2="90.12" y2="57.09"/><line class="cls-13" x1="81" y1="81.31" x2="99.47" y2="81.31"/><line class="cls-14" x1="83.39" y1="99.58" x2="97.29" y2="99.58"/></svg>
